<?xml version="1.0" standalone="no"?>
<!DOCTYPE svg PUBLIC "-//W3C//DTD SVG 20010904//EN"
 "http://www.w3.org/TR/2001/REC-SVG-20010904/DTD/svg10.dtd">
<svg version="1.0" xmlns="http://www.w3.org/2000/svg"
 width="1000.000000pt" height="1000.000000pt" viewBox="0 0 1000.000000 1000.000000"
 preserveAspectRatio="xMidYMid meet">
<metadata>
Created by potrace 1.14, written by Peter Selinger 2001-2017
</metadata>
<g transform="translate(0.000000,1000.000000) scale(0.100000,-0.100000)"
fill="#000000" stroke="none">
<path d="M4681 8803 c-8 -13 -10 -14 -11 -4 0 11 -4 9 -15 -5 -13 -16 -14 -16
-9 -1 3 9 1 17 -5 17 -6 0 -11 -5 -11 -11 0 -7 -9 -9 -21 -6 -17 4 -18 3 -8
-9 10 -12 9 -13 -6 -8 -14 6 -16 4 -10 -7 6 -11 5 -12 -6 -1 -16 15 -29 16
-29 1 0 -5 5 -7 10 -4 6 3 10 3 10 -2 0 -4 -11 -13 -25 -20 -14 -6 -23 -8 -21
-5 2 4 -3 14 -12 21 -14 13 -15 12 -10 -7 4 -12 2 -22 -3 -22 -5 0 -9 5 -9 10
0 6 -6 9 -12 8 -7 -2 -12 3 -10 10 1 8 -2 11 -8 7 -6 -3 -8 -10 -5 -15 7 -12
-54 -8 -75 4 -12 7 -13 6 -2 -5 18 -19 15 -31 -6 -20 -14 8 -18 6 -19 -10 -1
-11 2 -17 8 -14 16 11 10 0 -12 -18 -20 -18 -21 -18 -15 1 4 12 1 19 -8 19 -9
0 -12 -5 -9 -10 4 -6 0 -8 -10 -4 -10 3 -17 2 -17 -3 0 -6 5 -10 12 -10 6 0 8
-3 5 -6 -10 -10 -38 17 -30 29 4 6 -7 1 -24 -11 -17 -12 -35 -22 -40 -22 -4 0
-1 5 7 10 13 8 12 10 -2 10 -10 0 -18 -5 -18 -11 0 -5 -4 -7 -10 -4 -5 3 -10
0 -10 -7 0 -8 -5 -6 -11 5 -6 9 -15 15 -20 12 -5 -4 -7 -10 -4 -15 3 -4 -4 -6
-15 -3 -11 3 -20 9 -20 12 0 4 -6 8 -13 8 -8 0 -14 -6 -14 -13 0 -7 5 -10 10
-7 6 4 7 1 2 -6 -4 -7 -17 -11 -30 -9 -13 3 -22 0 -22 -8 0 -7 6 -10 13 -7 6
2 15 0 18 -5 3 -5 0 -10 -7 -9 -34 1 -48 -4 -41 -15 4 -7 3 -8 -5 -4 -9 6 -9
11 0 22 6 8 9 17 5 21 -3 3 -6 1 -6 -5 0 -7 -7 -12 -16 -12 -9 0 -12 -5 -8
-12 4 -7 3 -8 -4 -4 -7 4 -12 1 -12 -6 0 -8 -3 -9 -8 -3 -4 6 -14 10 -22 10
-8 0 -18 4 -22 10 -5 6 -8 6 -8 -2 0 -7 -5 -13 -11 -13 -5 0 -7 6 -3 13 5 9 3
9 -7 -1 -12 -11 -12 -14 1 -23 11 -8 9 -9 -10 -3 -22 6 -23 5 -11 -10 12 -14
12 -16 -3 -10 -13 5 -15 2 -9 -12 6 -16 5 -17 -9 -4 -9 8 -13 19 -10 24 3 5 0
6 -7 2 -8 -6 -9 -12 -2 -20 8 -9 7 -13 -4 -13 -8 0 -12 3 -10 7 2 3 0 12 -6
20 -7 12 -9 10 -9 -7 0 -13 -5 -23 -11 -23 -5 0 -7 5 -3 12 5 8 2 9 -9 5 -9
-3 -19 -2 -23 4 -4 7 -10 6 -18 0 -7 -6 -16 -8 -20 -4 -4 4 -4 0 -1 -9 4 -9 1
-19 -6 -24 -7 -4 -10 -3 -5 4 3 6 1 14 -5 18 -8 4 -9 3 -5 -4 4 -7 2 -12 -3
-12 -6 0 -10 -3 -10 -7 5 -29 -18 -40 -38 -18 -4 4 -3 5 3 2 6 -3 11 0 11 8 0
12 -4 12 -21 -2 -31 -27 -61 -67 -58 -76 1 -5 -2 -6 -8 -2 -6 3 -8 10 -5 15 3
5 -9 7 -27 6 -24 -2 -33 -8 -32 -20 2 -16 1 -16 -18 0 -16 15 -21 16 -28 4 -5
-8 -6 -18 -3 -24 3 -5 1 -6 -6 -2 -6 4 -8 12 -5 18 4 5 -5 3 -18 -6 -14 -9
-28 -13 -32 -9 -4 5 -7 4 -5 -2 1 -5 -1 -18 -6 -28 -6 -14 -10 -15 -21 -6 -12
10 -13 9 -8 -5 3 -9 1 -16 -5 -16 -6 0 -11 5 -11 10 0 6 -5 10 -11 10 -5 0 -7
-6 -3 -12 5 -9 2 -9 -9 1 -20 16 -23 1 -4 -18 10 -11 8 -11 -10 -2 -19 10 -22
9 -17 -4 7 -17 -16 -17 -28 0 -5 6 -8 6 -8 -2 0 -7 8 -17 18 -23 14 -8 11 -9
-13 -6 -27 5 -28 4 -12 -8 28 -21 20 -28 -10 -9 -28 17 -28 17 -13 -2 8 -11
11 -17 6 -13 -8 6 -20 -1 -49 -28 -9 -9 -15 -7 -25 10 -13 20 -13 20 -9 1 3
-15 -1 -21 -14 -22 -13 -1 -16 3 -12 15 3 10 -1 8 -11 -6 -10 -12 -22 -19 -28
-16 -5 4 -2 -6 8 -22 10 -16 12 -23 4 -16 -21 18 -35 15 -19 -5 13 -15 12 -15
-8 -3 -12 8 -19 18 -16 23 3 5 -4 3 -15 -4 -17 -11 -19 -16 -9 -28 10 -12 9
-13 -12 -2 -16 9 -21 10 -16 1 4 -7 -1 -14 -15 -17 -11 -3 -19 -11 -17 -18 3
-6 -5 -17 -16 -25 -21 -12 -21 -12 -7 6 14 17 13 18 -1 7 -9 -7 -19 -9 -24 -5
-4 4 -2 -3 4 -15 10 -19 9 -22 -4 -17 -8 4 -15 11 -15 17 0 6 -3 7 -7 4 -3 -4
2 -15 11 -26 12 -13 14 -21 6 -26 -6 -3 -9 -1 -8 6 2 6 -3 14 -10 16 -8 3 -10
-1 -5 -13 6 -16 5 -17 -9 -4 -9 8 -13 20 -10 25 3 6 -2 4 -11 -3 -9 -8 -22
-10 -29 -6 -8 5 -8 1 2 -11 14 -17 13 -18 -2 -13 -18 7 -52 -24 -41 -37 5 -4
0 -5 -10 -2 -11 4 -16 3 -12 -3 3 -5 -1 -22 -9 -37 -8 -16 -15 -24 -16 -20 0
5 5 17 10 27 7 13 7 21 0 25 -6 4 -9 1 -8 -7 2 -7 -2 -12 -9 -11 -7 2 -10 -6
-7 -21 2 -15 -3 -29 -14 -37 -16 -13 -16 -13 -2 5 13 17 13 19 0 14 -8 -3 -15
-14 -14 -26 0 -11 -4 -20 -10 -19 -6 1 -10 -4 -8 -12 2 -11 -2 -11 -22 2 -18
12 -27 14 -32 5 -4 -7 -3 -8 4 -4 7 4 12 3 12 -2 0 -6 -7 -12 -15 -16 -8 -3
-12 -12 -9 -20 4 -9 -1 -13 -13 -13 -12 1 -17 -4 -16 -17 1 -13 -2 -15 -10 -7
-13 13 -28 15 -26 4 3 -20 -2 -24 -16 -13 -12 10 -15 10 -16 -1 -2 -47 -13
-68 -23 -44 -4 11 -2 14 6 9 7 -4 8 -3 4 5 -4 6 -12 9 -17 5 -5 -3 -6 -10 -3
-16 5 -7 1 -9 -9 -5 -10 3 -17 2 -17 -3 0 -6 6 -10 13 -10 8 0 7 -3 -3 -9 -8
-6 -18 -7 -24 -4 -5 3 -6 2 -3 -4 4 -6 -5 -15 -18 -21 -17 -8 -25 -20 -25 -36
0 -28 -15 -42 -25 -25 -7 11 -102 -80 -97 -93 1 -5 -4 -8 -10 -8 -9 0 -8 -4 2
-10 13 -8 12 -10 -3 -10 -10 0 -16 -4 -12 -9 3 -5 0 -13 -6 -17 -8 -4 -9 -3
-5 4 4 7 1 12 -9 12 -12 0 -15 -5 -11 -16 4 -11 2 -15 -8 -11 -10 4 -14 0 -11
-13 2 -11 -1 -23 -7 -26 -7 -4 -8 -2 -4 4 9 14 -4 15 -24 2 -12 -8 -12 -10 -1
-10 15 0 6 -14 -10 -16 -5 -1 -12 -2 -15 -3 -4 0 -1 -8 6 -16 11 -13 10 -14
-5 -9 -12 5 -16 4 -11 -4 3 -6 1 -14 -5 -18 -8 -4 -9 -3 -5 4 4 7 2 12 -4 12
-6 0 -8 5 -4 12 4 7 3 8 -4 4 -6 -4 -9 -13 -6 -20 3 -7 -2 -21 -11 -30 -12
-12 -13 -16 -3 -16 10 0 9 -3 -2 -10 -10 -6 -11 -10 -2 -10 6 0 12 -4 12 -9 0
-5 -8 -7 -19 -4 -22 6 -37 -12 -20 -23 8 -4 9 -3 5 4 -4 7 -2 12 4 12 7 0 10
-6 7 -12 -2 -7 -14 -12 -27 -10 -19 2 -21 0 -10 -12 10 -13 8 -15 -9 -11 -14
2 -18 -1 -14 -11 3 -7 8 -12 12 -9 4 2 8 -2 8 -10 0 -12 -4 -12 -20 2 -11 10
-17 13 -14 7 4 -7 0 -15 -9 -18 -9 -3 -14 -13 -11 -20 4 -11 0 -14 -16 -11
-21 4 -21 4 -3 -10 17 -13 17 -15 3 -15 -10 0 -14 -5 -11 -15 4 -8 1 -15 -5
-15 -6 0 -11 -5 -11 -11 0 -5 4 -8 8 -5 5 3 9 -1 9 -9 0 -13 -4 -12 -19 2 -19
17 -26 5 -7 -14 8 -8 7 -13 -2 -18 -7 -5 -10 -4 -6 2 4 6 -2 13 -14 16 -14 4
-17 2 -11 -6 12 -14 -11 -40 -24 -29 -5 4 -3 0 4 -10 9 -11 10 -18 2 -23 -6
-3 -8 -10 -6 -14 3 -4 0 -13 -6 -21 -8 -13 -9 -12 -5 2 3 9 0 19 -8 21 -22 9
-25 -4 -9 -34 11 -22 12 -29 2 -27 -7 2 -12 -3 -10 -11 3 -12 0 -12 -11 -2
-12 9 -15 8 -13 -6 0 -10 -4 -17 -11 -16 -7 2 -10 -3 -7 -11 3 -7 -2 -16 -12
-20 -12 -5 -15 -2 -10 11 6 14 4 15 -5 6 -15 -15 -3 -34 19 -27 9 4 4 -3 -13
-15 -16 -11 -26 -21 -21 -21 5 0 2 -8 -7 -18 -10 -10 -14 -22 -11 -25 4 -4 1
-13 -5 -21 -7 -8 -9 -21 -5 -28 5 -8 1 -8 -11 2 -17 14 -18 13 -12 -4 5 -13 3
-17 -6 -13 -8 3 -20 1 -28 -5 -11 -8 -11 -9 3 -5 9 3 19 0 21 -7 4 -10 -1 -12
-16 -9 -17 4 -19 2 -8 -5 11 -8 10 -11 -5 -15 -15 -4 -15 -5 -3 -6 9 0 19 -7
22 -15 4 -10 -1 -13 -16 -10 -12 2 -16 2 -9 -2 21 -10 13 -21 -13 -19 -14 2
-23 -1 -19 -6 3 -5 10 -7 15 -4 5 3 6 -1 3 -9 -3 -9 -12 -16 -19 -16 -8 0 -17
-5 -21 -12 -4 -6 -3 -8 3 -5 6 4 13 1 16 -7 4 -10 -1 -12 -16 -9 -19 4 -20 3
-5 -7 10 -6 17 -21 16 -35 -1 -13 -5 -22 -9 -19 -4 2 -16 -7 -27 -21 -11 -14
-25 -25 -32 -25 -6 0 -8 -5 -5 -10 4 -6 11 -7 17 -4 7 5 8 2 4 -5 -5 -7 -15
-10 -23 -6 -13 4 -13 3 -4 -9 6 -7 8 -21 5 -30 -4 -9 1 -25 10 -35 13 -15 14
-18 1 -18 -8 0 -12 4 -9 9 3 4 0 8 -5 8 -10 0 -16 -22 -12 -44 1 -5 -6 -3 -15
5 -16 13 -16 12 -6 -7 9 -17 9 -24 -2 -33 -9 -8 -13 -7 -13 4 0 8 4 12 9 9 13
-8 9 2 -5 14 -9 8 -12 1 -13 -29 -1 -25 2 -35 7 -27 5 7 9 9 8 3 0 -5 -7 -21
-15 -35 -10 -16 -13 -18 -9 -6 6 19 5 19 -15 1 -22 -20 -27 -30 -9 -19 7 4 10
1 7 -7 -3 -8 -14 -13 -24 -11 -12 2 -15 0 -7 -5 18 -13 21 -69 3 -58 -5 3 -10
1 -10 -4 0 -10 14 -15 33 -12 4 0 7 -4 7 -10 0 -6 -7 -8 -17 -5 -10 4 -14 4
-10 0 4 -4 1 -14 -6 -22 -10 -13 -9 -15 6 -9 11 4 16 3 12 -3 -3 -6 -12 -10
-20 -10 -8 0 -17 -5 -21 -12 -5 -7 -2 -9 9 -5 8 3 18 0 21 -8 3 -9 0 -12 -8
-9 -8 3 -17 0 -22 -7 -4 -8 -3 -10 4 -5 7 4 12 2 12 -4 0 -6 5 -8 12 -4 7 4 8
3 4 -5 -4 -6 -12 -9 -17 -6 -5 4 -9 3 -9 -2 0 -4 -4 -14 -9 -22 -8 -13 -12
-13 -27 0 -15 12 -15 10 2 -16 13 -21 14 -26 3 -18 -12 10 -15 8 -15 -7 0 -10
3 -17 6 -15 3 2 10 -8 17 -21 6 -13 7 -22 2 -18 -5 3 -9 -2 -9 -11 0 -10 5
-13 12 -9 7 4 8 3 4 -5 -4 -6 -12 -8 -18 -5 -8 5 -9 -1 -5 -17 6 -23 5 -23 -8
-5 -18 23 -20 13 -4 -16 9 -18 9 -20 -4 -15 -12 4 -14 2 -10 -10 4 -10 2 -14
-3 -10 -7 4 -9 -6 -6 -25 3 -21 1 -29 -6 -24 -6 4 -9 14 -6 24 5 14 4 14 -4 3
-6 -8 -8 -21 -4 -29 4 -11 1 -13 -8 -7 -8 5 -11 4 -6 -3 4 -6 14 -9 24 -6 10
4 13 3 6 -3 -6 -4 -11 -27 -10 -50 1 -24 -2 -43 -5 -43 -4 0 -10 -7 -13 -16
-5 -14 -4 -15 9 -4 9 7 18 10 22 6 3 -3 1 -6 -6 -6 -8 0 -11 -6 -7 -16 5 -12
2 -15 -11 -10 -15 6 -16 5 -5 -5 14 -15 16 -33 3 -24 -5 3 -13 1 -16 -5 -4 -6
-3 -10 2 -9 20 3 25 -2 13 -16 -7 -9 -10 -18 -7 -22 4 -3 2 -12 -5 -20 -9 -11
-8 -13 3 -11 8 2 14 -4 14 -12 0 -8 3 -20 7 -25 4 -6 -4 -12 -18 -13 -13 -1
-24 3 -24 8 0 6 -5 10 -10 10 -7 0 -10 -157 -9 -474 1 -398 4 -474 15 -469 8
3 14 0 14 -5 0 -6 -8 -13 -18 -15 -16 -4 -16 -5 1 -6 12 -1 16 -5 11 -13 -6
-10 -4 -10 8 0 13 10 17 10 22 -3 3 -9 2 -13 -4 -10 -6 3 -10 -1 -10 -10 0
-12 5 -15 18 -11 15 5 15 5 1 -7 -14 -10 -14 -14 -3 -25 17 -15 18 -32 3 -32
-5 0 -8 4 -4 9 3 6 -5 15 -17 21 -22 11 -22 10 -4 -4 11 -9 16 -16 11 -16 -5
0 -4 -5 3 -12 7 -7 12 -23 12 -36 0 -16 4 -21 13 -16 8 6 8 3 -1 -9 -8 -9 -11
-21 -7 -27 3 -5 -2 -10 -12 -11 -10 0 -13 -3 -5 -6 6 -2 12 -9 12 -14 0 -6 -6
-7 -13 -3 -9 6 -9 5 0 -8 7 -8 9 -19 5 -23 -4 -5 -1 -5 6 -1 7 4 10 11 7 16
-3 5 -2 11 3 14 4 2 8 -6 8 -20 0 -13 -4 -24 -10 -24 -5 0 -6 -3 -3 -6 4 -4
13 -1 22 6 18 15 20 0 3 -19 -11 -11 -10 -12 1 -6 11 6 13 4 7 -10 -6 -16 -4
-16 10 -4 15 12 16 11 9 -11 -10 -30 -14 -90 -6 -85 4 2 11 -8 18 -21 6 -13 7
-22 2 -18 -5 3 -9 -4 -9 -15 0 -12 -5 -21 -12 -21 -6 0 -8 -3 -5 -6 4 -4 15
-1 24 7 10 7 15 9 11 5 -4 -5 -3 -16 4 -23 9 -11 9 -17 -3 -24 -9 -5 -10 -9
-2 -9 7 0 16 7 21 16 8 15 10 15 15 0 4 -10 3 -15 -3 -11 -6 3 -10 -1 -10 -10
0 -10 -5 -14 -12 -10 -7 4 -3 -2 10 -13 22 -20 31 -39 13 -27 -5 3 -13 0 -17
-6 -4 -7 -3 -9 3 -6 6 4 16 0 23 -8 7 -8 9 -15 4 -15 -5 0 -2 -5 6 -10 11 -7
11 -10 2 -10 -7 0 -10 -4 -7 -10 4 -6 -1 -7 -12 -3 -15 6 -16 5 -3 -9 8 -9 19
-13 24 -10 5 3 7 -2 3 -11 -4 -11 -1 -17 8 -17 20 0 19 -19 -2 -43 -10 -11
-12 -17 -5 -13 7 4 15 1 18 -8 3 -9 16 -16 28 -17 19 -1 19 -2 -4 -9 -14 -4
-19 -8 -11 -9 10 -1 11 -4 2 -15 -8 -10 -9 -16 -1 -21 6 -3 8 -11 5 -16 -4 -5
2 -9 11 -9 14 0 15 3 6 12 -15 15 -15 28 -1 28 5 0 8 -4 5 -8 -3 -5 5 -19 17
-33 12 -13 22 -31 22 -39 0 -8 4 -18 9 -22 6 -4 7 -10 3 -14 -4 -4 -17 1 -28
12 l-22 19 18 -27 c9 -15 21 -26 25 -23 5 3 11 1 14 -4 4 -5 2 -12 -4 -16 -5
-3 -10 -11 -10 -17 0 -6 3 -8 6 -5 4 3 16 1 27 -5 20 -10 20 -11 1 -25 -19
-15 -19 -15 1 -9 16 5 20 1 21 -19 1 -14 -1 -23 -5 -20 -4 2 -8 -2 -8 -10 0
-8 9 -17 18 -20 15 -5 16 -9 6 -20 -6 -7 -16 -11 -22 -8 -5 2 0 -4 12 -15 12
-11 20 -22 18 -24 -3 -3 2 -5 12 -5 13 0 12 4 -6 18 -21 17 -21 18 -2 16 11
-1 18 -3 16 -6 -3 -2 3 -13 12 -24 10 -11 12 -17 6 -13 -7 4 -13 2 -13 -3 0
-6 5 -11 10 -11 18 0 11 -30 -7 -31 -11 0 -13 -3 -5 -6 6 -2 9 -10 6 -16 -5
-8 -2 -8 7 1 7 6 18 12 23 12 6 0 5 -4 -3 -9 -11 -7 -7 -15 18 -40 17 -17 36
-31 41 -31 6 0 10 -9 10 -20 0 -11 -5 -20 -12 -20 -6 0 -9 -3 -6 -6 4 -3 18 2
32 11 16 11 26 13 26 6 0 -6 -7 -11 -15 -11 -20 0 -19 -12 6 -44 12 -15 15
-24 7 -21 -9 4 -14 -2 -15 -17 0 -13 1 -17 4 -10 3 6 9 12 14 12 6 0 8 -4 5
-9 -3 -5 1 -12 10 -15 12 -5 15 -2 10 11 -6 15 -5 16 5 5 10 -9 10 -15 1 -24
-7 -7 -12 -17 -12 -23 0 -5 5 -3 10 5 7 11 10 11 10 2 0 -7 5 -10 12 -6 6 4 8
3 4 -4 -3 -6 -1 -14 5 -17 5 -4 8 -13 5 -21 -3 -7 -1 -16 4 -19 6 -4 10 -15
10 -27 0 -17 2 -18 15 -8 9 7 18 10 22 6 3 -3 1 -6 -5 -6 -7 0 -12 -5 -12 -11
0 -6 7 -8 16 -5 8 3 12 2 9 -4 -6 -10 9 -15 30 -10 5 1 1 -9 -10 -21 -11 -12
-15 -19 -9 -16 16 9 48 -39 32 -49 -7 -5 -8 -3 -3 6 5 9 4 11 -4 6 -6 -4 -9
-12 -5 -17 3 -5 10 -7 15 -4 5 4 9 -1 9 -10 0 -10 -5 -13 -12 -9 -7 4 -8 3 -4
-4 4 -6 13 -9 21 -5 8 3 16 0 16 -6 4 -36 16 -51 34 -44 11 4 13 1 8 -13 -5
-13 -3 -16 9 -12 8 4 19 3 24 0 16 -12 49 -56 37 -48 -7 4 -13 2 -13 -3 0 -6
7 -11 16 -11 11 0 14 -6 10 -17 -6 -17 -5 -17 8 0 12 16 14 16 20 2 3 -9 2
-13 -4 -10 -6 3 -10 1 -10 -4 0 -6 6 -11 14 -11 8 0 13 -8 12 -17 -1 -13 6
-18 26 -17 15 1 26 -4 25 -10 -1 -6 3 -10 9 -9 6 1 11 -3 12 -10 3 -33 31 -96
32 -71 0 6 7 11 15 11 12 0 12 -3 2 -15 -10 -13 -8 -14 13 -7 23 7 24 7 10
-10 -12 -15 -12 -17 -1 -10 11 6 13 3 9 -12 -4 -15 -1 -20 11 -19 9 0 15 -5
13 -11 -1 -7 2 -13 8 -13 15 0 12 16 -5 30 -8 7 -15 18 -15 24 0 6 5 3 11 -7
6 -9 15 -14 21 -11 7 4 8 2 4 -4 -4 -7 -2 -12 4 -12 6 0 9 -4 6 -8 -2 -4 0
-14 5 -22 8 -13 10 -13 20 0 8 12 9 10 4 -9 -6 -18 -4 -22 6 -15 12 6 12 5 0
-9 -16 -20 -2 -23 18 -4 11 10 13 9 7 0 -4 -7 -2 -13 3 -13 6 0 11 -5 11 -11
0 -5 -5 -7 -12 -3 -6 4 -8 3 -4 -4 3 -6 15 -9 26 -7 11 2 20 -1 20 -6 0 -6 5
-7 11 -3 8 5 8 1 0 -13 -10 -21 2 -43 24 -43 5 0 3 5 -5 10 -9 6 -10 10 -3 10
6 0 15 -5 18 -10 4 -6 10 -8 15 -5 5 3 12 0 16 -6 4 -8 3 -9 -4 -5 -7 4 -12 3
-12 -2 0 -6 -10 -8 -22 -6 -21 4 -21 4 -3 -5 11 -4 27 -7 37 -6 16 3 19 -10 6
-30 -4 -6 1 -11 10 -12 53 -4 59 -7 54 -27 -4 -15 -1 -18 11 -13 9 3 19 1 23
-5 4 -7 3 -8 -4 -4 -7 4 -12 1 -12 -7 0 -10 9 -13 28 -10 23 3 24 2 7 -6 -19
-9 -19 -10 3 -10 13 -1 20 -5 17 -11 -3 -5 1 -10 11 -10 12 0 15 -6 11 -21 -6
-21 -5 -21 20 2 l26 24 -18 -28 c-17 -26 -17 -27 0 -20 14 5 17 3 12 -10 -3
-8 1 -21 9 -27 13 -11 18 -7 15 12 0 5 3 8 9 8 5 0 10 -4 10 -10 0 -5 12 -10
26 -10 14 0 23 -4 20 -9 -7 -11 22 -23 36 -14 7 3 8 1 4 -5 -7 -11 6 -17 27
-13 5 1 6 -3 3 -8 -8 -13 23 -43 36 -35 7 4 8 2 4 -4 -8 -14 -46 2 -46 18 0
17 -41 33 -54 20 -8 -8 -7 -10 5 -5 19 7 52 -22 43 -37 -4 -6 -2 -8 3 -5 6 4
22 -3 37 -14 14 -11 26 -17 26 -12 0 4 5 1 11 -7 9 -13 10 -12 5 3 -3 11 -2
16 4 12 6 -3 10 0 10 7 0 9 3 9 8 2 4 -6 14 -14 22 -18 8 -3 5 -4 -7 -2 -13 2
-23 0 -23 -6 0 -6 13 -8 30 -6 36 5 39 1 8 -12 -21 -8 -20 -9 10 -9 23 -1 31
-5 26 -13 -5 -8 -2 -9 12 -4 10 4 15 4 11 0 -4 -4 -1 -14 6 -22 8 -11 8 -14 0
-9 -6 4 -14 3 -17 -2 -7 -11 13 -9 31 2 9 6 11 3 6 -9 -4 -12 -3 -15 5 -10 16
9 15 -7 0 -22 -9 -9 -9 -12 0 -12 7 0 12 5 12 11 0 6 7 8 16 5 8 -3 12 -2 9 4
-5 8 23 8 45 0 3 -2 8 -2 11 -2 3 1 4 -11 1 -26 -4 -26 -4 -26 11 -7 14 18 15
18 12 -9 -3 -27 -3 -27 22 -11 14 10 22 12 19 6 -4 -6 0 -11 9 -11 9 0 14 4
10 9 -3 5 -1 12 4 15 5 3 7 -11 5 -32 -3 -34 -2 -35 9 -15 l12 23 14 -22 c11
-17 15 -18 23 -7 7 10 8 8 3 -8 -7 -24 -1 -27 41 -24 19 2 36 -17 38 -44 1 -5
10 -9 21 -8 11 1 35 4 53 7 18 2 31 2 28 -1 -7 -7 27 -43 36 -37 4 3 8 -2 8
-11 0 -10 -5 -13 -12 -9 -8 4 -9 3 -5 -2 5 -5 20 -10 35 -11 15 -1 37 -4 49
-7 15 -3 20 -1 17 8 -3 9 4 12 23 11 23 -1 28 -6 28 -26 -1 -14 4 -26 11 -26
7 0 10 7 7 16 -4 13 -3 13 5 2 6 -8 15 -10 23 -6 11 6 12 5 2 -6 -16 -17 -17
-37 -1 -21 9 9 15 7 25 -6 8 -9 12 -11 8 -4 -3 6 0 13 7 13 50 5 78 4 78 -3 0
-5 4 -6 10 -3 6 3 7 -1 4 -9 -5 -12 1 -16 21 -16 15 0 24 -4 20 -10 -4 -6 -10
-8 -14 -6 -4 3 -8 -2 -8 -10 0 -10 4 -11 11 -4 12 12 27 13 24 1 -2 -5 2 -8 7
-7 6 0 9 4 7 9 -4 12 8 8 24 -8 17 -17 44 -9 45 14 0 12 2 11 8 -4 5 -11 7
-23 4 -27 -2 -5 1 -8 7 -8 7 0 10 6 7 13 -3 8 6 12 28 12 24 0 31 -3 24 -11
-7 -8 -2 -12 16 -11 14 0 22 4 18 10 -3 6 -1 7 5 3 7 -4 12 -16 12 -27 0 -11
5 -17 10 -14 6 4 8 12 4 18 -3 7 7 -1 21 -18 15 -16 24 -24 21 -17 -9 16 6 16
23 0 10 -11 15 -9 27 6 9 13 14 15 14 6 0 -11 3 -11 12 -2 7 7 17 12 23 12 5
0 4 -4 -3 -9 -10 -6 -9 -10 7 -14 12 -3 19 -1 16 3 -3 5 0 12 6 16 7 4 9 3 6
-2 -3 -6 -2 -16 4 -24 7 -12 9 -9 9 10 1 22 2 23 11 7 5 -9 7 -22 3 -29 -5 -7
-3 -8 5 -4 7 5 10 14 7 22 -3 7 0 16 6 20 7 4 8 3 4 -4 -4 -7 -1 -12 8 -12 9
0 16 -5 16 -11 0 -5 -5 -7 -12 -3 -7 4 -8 3 -4 -5 6 -9 11 -9 24 1 13 11 15
10 9 -5 -6 -15 -4 -16 15 -6 17 9 20 9 15 -4 -8 -22 4 -30 17 -11 10 13 14 13
35 -5 29 -25 39 -27 20 -4 -13 15 -11 15 21 -1 l35 -17 -24 21 c-13 11 -18 20
-13 20 6 0 14 -5 17 -10 4 -6 11 -8 16 -5 5 4 9 1 9 -6 0 -8 4 -8 15 1 8 7 15
9 15 5 0 -4 8 -1 18 6 15 13 16 12 3 -4 -15 -20 -2 -23 18 -5 11 10 13 10 7 1
-4 -7 -2 -13 3 -13 6 0 11 8 11 18 1 10 6 6 14 -13 10 -25 13 -26 19 -12 5 12
3 16 -5 11 -7 -4 -8 -3 -4 4 4 6 13 9 21 6 8 -4 12 -10 9 -15 -3 -5 0 -9 5 -9
6 0 11 7 11 15 0 8 5 15 11 15 6 0 8 -9 4 -22 -6 -22 -5 -22 7 -3 14 22 31 26
45 11 4 -5 3 -6 -4 -2 -6 3 -15 1 -19 -5 -4 -8 -3 -9 4 -5 7 4 12 1 12 -6 0
-8 3 -9 8 -3 11 16 46 19 36 3 -6 -10 -5 -10 9 0 9 8 22 10 28 6 8 -5 11 -2 7
7 -4 10 2 14 18 14 23 0 23 -1 7 -13 -16 -12 -15 -12 11 -6 19 5 31 2 38 -7 7
-10 8 -9 4 7 -5 16 -1 20 18 20 14 0 22 -4 20 -8 -3 -5 -10 -6 -15 -3 -5 4 -9
2 -9 -2 0 -5 21 -8 48 -8 26 1 51 -3 55 -9 5 -6 6 -2 3 10 -5 16 -1 20 18 20
14 0 22 -4 20 -8 -3 -5 -10 -6 -15 -3 -5 4 -9 2 -9 -2 0 -13 137 -8 153 6 12
9 17 9 23 0 5 -8 3 -9 -6 -4 -9 5 -11 4 -6 -4 4 -6 4 -18 -1 -24 -4 -7 0 -4
11 8 10 11 21 20 25 20 3 0 6 9 5 19 -1 17 0 18 11 2 7 -9 17 -16 21 -15 21 4
35 -2 29 -11 -3 -5 -1 -10 4 -10 6 0 11 6 11 13 0 7 11 13 25 13 20 0 24 -4
19 -19 -4 -13 -2 -17 5 -13 6 4 11 14 11 22 0 8 5 14 11 14 6 0 8 -8 5 -17 -5
-15 -4 -15 9 1 11 14 15 16 15 5 1 -10 3 -9 11 4 11 18 29 14 29 -6 0 -7 -4
-6 -10 3 -6 9 -10 10 -10 3 0 -20 18 -24 29 -6 8 14 10 15 11 3 0 -13 1 -13
10 0 9 13 10 13 10 0 0 -13 1 -13 10 0 5 8 10 10 10 4 0 -7 7 -14 15 -18 13
-5 14 -2 4 17 l-12 22 23 -20 c13 -11 20 -14 16 -7 -4 6 -2 12 3 12 6 0 11 -4
11 -9 0 -5 6 -11 13 -14 8 -3 14 1 14 9 0 7 -5 10 -10 7 -6 -4 -7 -1 -2 7 6
10 11 9 22 -5 9 -14 13 -15 13 -4 0 12 2 12 10 -1 5 -8 10 -11 10 -6 0 5 8 2
17 -5 9 -8 14 -9 10 -3 -3 6 1 20 9 30 15 19 15 19 10 0 -5 -16 -4 -17 8 -7 8
7 13 21 11 32 -2 11 0 17 5 14 14 -8 40 6 33 19 -4 8 -2 8 7 -1 7 -6 20 -9 29
-6 13 5 14 3 4 -8 -22 -22 -14 -31 8 -10 16 15 27 17 44 11 14 -5 26 -5 33 2
6 6 12 6 17 -3 6 -8 4 -10 -5 -4 -9 5 -11 4 -6 -4 4 -6 12 -9 17 -5 5 3 7 10
4 15 -4 5 1 9 10 9 9 0 14 -4 11 -9 -7 -11 21 -8 31 4 4 4 2 5 -4 1 -8 -4 -13
-1 -13 7 0 10 8 14 23 11 12 -2 16 -2 10 2 -18 8 -16 25 2 18 11 -5 14 -2 9
12 -6 17 -5 17 10 -1 10 -11 15 -15 12 -9 -3 7 1 15 10 18 12 4 15 2 10 -9 -3
-8 -1 -15 4 -15 6 0 10 8 10 18 0 13 2 14 9 3 7 -11 9 -11 14 0 4 10 6 10 6 2
1 -7 6 -13 12 -13 5 0 7 4 4 10 -3 5 -3 10 2 11 4 0 16 2 25 4 12 2 15 -2 11
-13 -4 -14 -3 -15 5 -2 8 10 8 18 0 27 -8 11 -7 12 7 7 12 -5 16 -4 11 4 -9
15 7 23 24 10 12 -8 11 -8 -5 -3 -15 5 -17 3 -8 -6 14 -14 36 -2 29 17 -3 8
-1 14 3 14 5 0 11 -7 15 -15 3 -9 12 -12 22 -8 13 5 15 3 9 -7 -5 -9 -4 -11 4
-6 8 6 9 12 2 20 -8 9 -7 13 4 13 8 0 15 -5 15 -10 0 -6 3 -7 7 -4 3 4 13 1
22 -5 9 -7 7 -2 -4 11 l-20 24 22 -12 c15 -7 24 -8 28 -1 4 6 12 7 18 4 7 -4
8 -3 4 2 -5 5 -13 9 -18 9 -5 0 -9 3 -9 8 0 4 0 9 0 12 0 3 10 0 23 -6 19 -11
20 -10 10 2 -10 12 -9 15 5 16 9 1 29 4 45 7 15 4 27 2 27 -3 0 -5 7 -12 16
-15 14 -5 15 -4 5 8 -10 12 -9 13 9 9 15 -4 19 -2 14 10 -4 12 0 15 19 13 18
-2 24 1 20 10 -3 8 -10 14 -16 14 -6 0 -8 3 -5 6 4 3 17 0 30 -7 21 -11 22
-11 9 5 -12 14 -12 17 -1 14 22 -5 38 -22 32 -33 -3 -5 2 -4 11 4 18 14 23 26
8 16 -5 -3 -13 0 -17 6 -4 8 -3 9 4 5 6 -4 23 7 38 23 15 17 30 28 35 26 4 -3
13 3 19 12 11 17 11 17 6 0 -6 -20 3 -22 29 -3 11 7 30 12 43 11 16 -1 19 2
12 9 -16 16 -12 30 5 16 13 -11 14 -10 10 1 -4 10 1 15 14 15 11 0 18 -4 15
-7 -10 -16 15 -18 27 -2 10 12 10 14 2 9 -7 -4 -13 -3 -13 2 0 5 9 12 21 15
12 3 18 10 15 16 -4 6 2 8 15 6 12 -2 19 -2 15 2 -7 7 12 33 25 33 5 0 9 -5 9
-11 0 -5 -4 -8 -8 -5 -5 3 -9 -1 -9 -9 0 -22 12 -18 25 8 6 12 11 16 11 10 1
-7 6 -13 12 -13 6 0 8 7 5 16 -5 14 -4 15 9 4 13 -11 14 -10 9 6 -4 10 -4 16
1 12 9 -9 35 16 35 34 0 10 3 9 10 -2 9 -13 10 -13 10 1 0 8 12 26 27 40 14
13 23 18 19 12 -4 -7 -2 -13 3 -13 6 0 11 6 11 13 0 7 3 8 8 2 11 -15 51 -14
45 2 -3 7 0 13 6 13 6 0 11 -5 11 -12 0 -6 3 -9 6 -6 3 4 0 17 -7 30 -12 22
-11 22 6 8 10 -8 16 -10 12 -4 -3 6 1 20 9 30 14 17 15 17 10 1 -5 -15 -2 -16
14 -7 11 6 20 13 20 16 0 3 -4 3 -9 0 -5 -3 -11 4 -14 16 -4 16 -3 18 6 9 16
-16 30 -14 23 5 -3 8 -2 12 3 9 5 -3 12 -1 16 5 3 5 11 10 18 10 6 0 2 -7 -9
-16 -18 -14 -18 -15 4 -4 16 8 22 8 22 0 0 -6 7 -4 16 4 8 9 20 13 26 10 7 -4
8 -2 4 5 -4 6 -12 8 -18 5 -7 -5 -8 -2 -4 5 5 7 10 10 13 7 3 -3 14 -1 25 5
16 9 17 13 6 27 -11 13 -11 14 1 7 11 -6 13 -4 7 10 -5 15 -4 16 9 5 8 -7 12
-17 8 -23 -3 -6 -1 -7 6 -3 6 4 10 15 9 24 -2 12 3 16 17 15 20 -1 20 -1 1 13
-19 13 -18 14 10 15 16 1 32 1 35 1 3 -1 6 6 6 13 0 11 -4 12 -13 4 -8 -7 -14
-6 -20 2 -5 8 -3 9 5 5 8 -5 14 0 18 14 4 15 8 18 13 10 6 -10 13 -9 29 2 11
8 18 18 14 21 -3 4 -1 7 6 7 7 0 9 5 6 10 -4 6 -11 7 -17 4 -7 -4 -8 -2 -4 4
5 9 13 9 29 0 21 -11 21 -10 7 7 -8 10 -9 16 -3 11 7 -4 25 0 40 9 21 11 23
15 8 13 -11 -2 -23 -7 -26 -11 -3 -5 -9 -2 -12 6 -4 11 0 15 14 12 11 -2 22 2
26 10 3 8 9 15 15 15 5 0 6 -5 2 -12 -5 -7 -3 -8 5 -3 7 4 11 18 9 30 -4 16
-1 22 9 18 7 -3 10 -10 6 -16 -3 -6 -1 -7 5 -3 6 4 8 14 5 23 -5 12 -3 14 7 8
10 -6 12 -2 7 16 -6 23 -6 24 10 4 15 -20 15 -20 11 1 -3 13 0 21 8 22 8 1 20
3 28 4 8 1 12 8 8 16 -3 9 -1 13 5 9 6 -4 18 2 27 12 13 14 14 21 5 27 -8 5
-10 3 -4 -6 6 -9 4 -11 -5 -5 -9 6 -11 4 -5 -5 6 -9 4 -11 -5 -5 -9 6 -11 4
-5 -5 6 -9 4 -11 -4 -5 -9 5 -7 13 9 30 22 23 56 24 43 1 -3 -6 -2 -7 2 -3 13
11 15 38 3 31 -7 -5 -8 -2 -4 5 5 7 14 10 21 7 22 -8 26 6 8 33 -14 22 -14 24
-1 13 12 -10 18 -10 23 -1 6 8 10 7 16 -2 7 -11 9 -10 10 4 3 30 4 35 12 43 4
5 18 9 30 9 16 0 21 6 22 27 0 14 4 30 9 35 5 4 6 3 3 -3 -4 -7 0 -14 8 -18
18 -7 19 -2 3 27 -10 20 -10 21 5 8 10 -7 17 -10 17 -5 0 5 5 2 10 -6 8 -12
10 -10 8 10 -2 13 2 25 9 25 17 0 28 15 12 16 -8 1 -18 1 -22 0 -5 -1 -6 3 -3
8 4 5 17 8 31 5 26 -5 42 10 24 22 -8 5 -9 3 -4 -6 5 -9 4 -11 -4 -6 -6 4 -9
12 -5 17 3 5 10 7 15 4 5 -4 12 1 15 9 3 9 14 16 23 17 12 0 11 2 -4 8 -11 5
-24 6 -29 3 -5 -3 -6 0 -2 7 11 17 59 39 79 36 9 -2 15 1 11 6 -3 5 -9 7 -14
4 -4 -3 -13 1 -19 9 -9 11 -6 13 13 11 24 -3 28 8 13 32 -10 16 5 17 19 3 8
-8 15 -6 25 6 8 10 9 15 3 11 -7 -4 -17 0 -23 7 -10 12 -9 13 7 9 11 -2 23 1
27 8 5 7 4 10 -3 5 -6 -3 -14 -1 -18 5 -4 7 -3 9 3 6 6 -4 19 1 29 9 10 9 13
13 7 9 -7 -3 -13 0 -13 7 0 9 -3 9 -10 -2 -6 -9 -10 -10 -10 -3 0 6 4 14 10
18 5 3 7 13 4 23 -5 14 -4 15 5 2 6 -9 11 -10 11 -3 0 6 9 9 23 6 16 -3 18 -2
8 5 -18 13 1 47 26 47 11 0 19 9 21 22 2 13 8 23 13 23 6 0 7 -5 4 -10 -10
-16 1 -12 15 6 11 12 11 15 0 12 -19 -4 -18 54 1 60 12 3 12 2 -1 -8 -13 -10
-13 -11 0 -7 8 2 14 13 14 25 -1 13 3 19 12 15 8 -3 11 -10 7 -16 -3 -6 -1 -7
5 -3 6 4 8 14 5 23 -4 11 -3 14 5 9 8 -5 10 -2 6 8 -3 9 -10 16 -15 16 -5 0
-9 5 -9 10 0 7 6 7 19 0 14 -7 22 -7 26 0 4 6 1 9 -6 8 -6 -2 -14 3 -17 11 -2
8 0 11 5 8 5 -3 9 6 9 21 -1 16 4 26 12 24 6 -1 12 1 13 5 0 5 3 17 5 28 3 11
6 27 8 35 4 29 16 40 34 31 14 -7 17 -4 19 17 1 18 -1 21 -8 11 -7 -11 -10
-12 -21 -1 -7 8 -8 12 -3 11 6 -2 20 2 31 9 12 6 23 10 26 9 2 -1 -5 7 -17 17
-18 17 -18 19 -2 13 13 -5 17 -3 14 5 -2 7 -11 12 -18 10 -9 -2 -7 4 5 17 21
23 46 28 46 9 0 -6 3 -8 6 -5 4 4 1 14 -7 24 -12 15 -12 16 2 11 9 -4 20 2 28
15 11 18 11 20 0 10 -18 -18 -34 -16 -19 2 7 8 10 24 7 36 -3 12 0 22 9 26 8
3 14 13 14 22 0 13 2 13 9 2 5 -7 14 -10 20 -6 9 5 9 10 1 20 -8 10 -8 15 1
21 8 5 9 3 4 -6 -6 -9 -4 -11 5 -5 10 6 9 11 -5 22 -11 7 -13 13 -7 13 7 0 12
12 12 28 0 21 -2 24 -10 12 -6 -9 -10 -10 -10 -3 0 6 5 15 10 18 6 4 8 10 5
15 -3 5 3 7 14 5 15 -3 19 2 16 23 -3 25 -2 25 12 7 14 -19 15 -19 8 4 -4 14
-3 21 2 18 5 -4 10 0 10 8 0 8 -4 12 -9 9 -4 -3 -5 2 -2 11 5 13 9 13 22 3 13
-12 14 -11 2 9 -8 12 -17 20 -20 18 -4 -2 -7 2 -7 10 0 17 8 19 25 5 9 -7 9
-7 2 2 -12 14 -13 61 -2 54 5 -3 9 1 9 10 0 10 -7 12 -20 8 -13 -4 -17 -2 -13
5 4 6 16 11 26 11 10 0 22 4 25 10 3 6 -1 7 -10 4 -11 -5 -14 -2 -8 12 5 13 3
15 -7 9 -9 -5 -11 -4 -6 4 6 9 11 9 22 0 9 -7 14 -8 13 -3 -1 5 -1 22 0 37 1
20 5 26 14 21 8 -5 8 -2 -2 9 -16 20 -2 23 19 4 12 -10 12 -9 2 4 -6 9 -8 19
-4 23 4 4 3 7 -3 6 -25 -5 -28 2 -5 16 14 8 17 13 8 10 -9 -2 -19 1 -22 9 -3
9 0 12 8 9 8 -3 17 0 22 7 4 8 3 10 -4 5 -7 -4 -12 -3 -12 3 0 5 -2 15 -5 23
-3 7 0 20 5 28 9 13 11 13 21 0 9 -12 10 -12 5 4 -5 15 -2 17 14 13 12 -3 18
-1 14 5 -3 5 -14 8 -24 5 -13 -3 -17 0 -13 9 3 8 12 14 20 14 13 0 13 2 2 17
-12 14 -12 16 0 8 11 -6 13 -4 7 10 -5 15 -4 16 9 5 20 -16 19 -6 -1 14 -11
11 -12 16 -3 16 7 0 4 7 -7 15 -19 15 -19 15 1 8 18 -6 19 -5 5 12 -8 10 -10
16 -4 12 7 -4 14 0 17 8 4 10 1 12 -11 9 -12 -4 -10 1 7 15 13 12 19 21 13 21
-5 0 -12 9 -15 21 -4 15 -2 19 9 15 8 -3 14 -3 14 0 0 2 -10 9 -22 14 -17 6
-18 9 -6 9 16 1 35 36 30 55 -2 5 4 6 12 3 12 -5 14 56 14 438 0 306 -3 444
-10 442 -6 -1 -13 4 -16 12 -2 8 0 11 6 7 17 -11 23 11 6 24 -12 10 -17 11
-27 1 -9 -10 -8 -11 8 -5 16 6 18 5 7 -7 -10 -11 -15 -10 -30 5 -9 11 -11 16
-4 12 15 -9 16 6 1 21 -9 9 -6 10 11 6 l23 -6 -20 20 c-14 14 -20 32 -18 59 1
21 -3 42 -9 46 -8 5 -7 8 1 8 6 0 10 9 8 20 -2 11 0 18 6 15 5 -4 9 -1 9 4 0
6 -5 11 -11 11 -8 0 -8 5 1 15 9 10 9 15 1 15 -6 0 -11 5 -11 11 0 5 4 8 9 4
5 -3 13 0 17 6 4 7 3 9 -2 6 -5 -3 -20 3 -33 12 -18 14 -21 20 -11 26 8 5 11
4 7 -2 -4 -6 0 -14 8 -17 12 -4 13 -2 6 13 -7 12 -19 17 -36 15 -20 -2 -24 1
-16 10 6 7 8 16 4 20 -11 10 -12 37 -2 30 5 -3 7 -10 4 -15 -4 -5 -1 -9 5 -9
7 0 9 -7 6 -16 -3 -8 -2 -12 3 -9 12 7 10 45 -2 45 -5 0 -6 9 -2 19 3 11 1 22
-4 26 -7 3 -8 0 -5 -9 3 -9 2 -16 -3 -16 -5 0 -9 18 -9 40 0 26 5 40 13 40 7
0 13 5 13 11 0 5 -4 7 -10 4 -5 -3 -10 -2 -10 4 0 5 3 11 8 14 4 2 1 2 -5 1
-8 -2 -13 7 -14 24 0 15 -3 21 -6 14 -4 -10 -9 -7 -18 10 -6 12 -9 28 -6 33
12 22 10 45 -7 57 -10 7 -17 19 -16 26 1 6 2 17 3 23 0 5 7 7 14 3 9 -5 9 -3
-1 7 -11 12 -14 12 -23 -1 -9 -12 -10 -12 -5 3 3 11 0 20 -9 23 -8 4 -12 11
-9 16 4 6 10 5 16 -3 8 -11 9 -11 5 1 -2 8 -10 14 -17 12 -7 -2 -9 5 -5 18 4
12 2 20 -5 20 -6 0 -9 -4 -6 -8 3 -5 -1 -9 -9 -9 -8 0 -15 4 -15 9 0 4 5 8 10
8 6 0 10 9 10 21 0 13 4 18 13 14 6 -4 2 2 -11 13 -20 19 -21 21 -5 25 14 4
13 5 -4 6 -13 0 -23 6 -23 12 0 5 4 8 9 4 5 -3 13 0 17 6 4 8 3 9 -4 5 -7 -4
-12 -2 -12 5 0 7 -8 5 -22 -7 -12 -10 -18 -14 -15 -7 4 6 4 13 0 16 -5 2 -2 2
4 1 13 -3 13 30 0 42 -4 4 -1 14 6 22 9 13 9 14 0 8 -8 -4 -13 -2 -13 4 0 6
-5 8 -12 4 -8 -5 -7 0 2 11 14 17 13 18 -2 12 -28 -10 -49 18 -37 49 8 22 7
25 -5 21 -20 -8 -27 5 -15 23 7 13 9 13 9 1 0 -8 2 -12 5 -9 10 10 -7 38 -19
31 -6 -3 -6 -1 2 8 16 17 15 32 -1 26 -8 -3 -14 1 -14 8 0 7 7 11 16 8 9 -2 5
2 -8 10 -18 11 -21 16 -10 21 8 3 4 3 -8 0 -23 -5 -32 9 -13 21 13 8 3 25 -13
25 -8 0 -8 -3 1 -9 11 -7 11 -9 -1 -14 -15 -6 -18 16 -4 30 5 4 -2 16 -15 26
l-23 18 23 -11 c32 -16 38 -7 7 10 -14 7 -25 17 -25 22 0 5 -5 6 -12 2 -8 -5
-9 -2 -5 10 6 14 3 16 -16 11 -20 -5 -20 -5 3 10 14 9 17 14 8 11 -10 -3 -20
-1 -23 4 -3 5 -12 7 -20 3 -8 -3 -15 0 -15 7 0 6 4 9 9 6 5 -3 8 12 8 33 -1
22 -4 37 -6 35 -2 -2 -12 9 -22 26 -13 20 -24 28 -38 25 -11 -2 -23 0 -26 5
-3 5 4 7 15 5 25 -5 25 2 2 23 -10 10 -12 13 -5 8 10 -6 12 -4 7 8 -3 9 -10
16 -16 16 -5 0 -2 7 6 16 20 19 20 25 2 18 -20 -8 -67 42 -59 64 4 14 3 13
-10 -3 -16 -20 -16 -20 -10 3 4 18 2 21 -11 16 -12 -5 -15 -2 -10 10 4 10 1
16 -8 16 -8 0 -15 7 -15 15 0 10 4 12 12 5 7 -6 11 -3 11 9 0 13 -6 17 -20 13
-16 -4 -18 -1 -14 16 4 15 2 22 -9 22 -8 0 -11 -5 -7 -12 4 -7 3 -8 -4 -4 -6
4 -9 13 -5 21 6 18 -8 20 -25 3 -8 -8 -12 -8 -12 -1 0 6 8 14 17 17 15 6 15 8
3 16 -9 6 -17 5 -22 -3 -6 -9 -8 -9 -8 0 0 7 7 16 16 21 15 8 15 10 0 15 -10
4 -15 3 -12 -2 3 -5 -3 -11 -13 -14 -15 -4 -18 1 -17 23 2 22 -2 26 -21 24
-13 -1 -21 2 -17 7 3 5 10 7 15 4 5 -3 6 1 3 10 -5 13 -9 13 -22 3 -12 -10
-14 -10 -8 0 4 6 2 12 -3 12 -6 0 -11 5 -11 11 0 5 6 7 13 3 6 -4 -1 6 -16 23
-19 21 -36 29 -56 28 -23 -1 -27 2 -23 17 2 10 -1 18 -9 18 -7 0 -9 3 -5 7 4
4 16 -3 27 -17 16 -20 18 -21 10 -4 -6 12 -8 23 -6 26 2 2 -8 5 -22 6 -35 3
-39 8 -22 29 8 9 9 14 2 10 -6 -4 -13 -4 -16 0 -2 5 -2 2 -1 -4 2 -7 0 -13 -5
-13 -5 0 -11 9 -14 20 -3 11 -10 20 -17 20 -6 0 -8 -6 -4 -12 4 -8 3 -10 -2
-5 -5 5 -9 12 -9 15 0 4 -4 14 -10 22 -7 12 -6 13 6 5 8 -5 7 -3 -3 7 -13 12
-15 18 -6 22 7 3 1 3 -13 1 -20 -2 -36 6 -64 35 -21 22 -43 36 -48 33 -6 -3
-7 -2 -4 3 7 13 -9 39 -24 39 -7 0 -13 8 -15 18 -1 9 2 15 7 11 5 -3 6 -10 3
-16 -4 -6 -2 -8 4 -4 6 3 20 -8 32 -24 12 -17 24 -29 27 -26 3 3 -2 12 -11 21
-9 9 -13 21 -10 27 4 6 2 8 -4 4 -6 -3 -18 4 -27 16 -16 23 -16 23 -32 3 -12
-16 -14 -16 -10 -3 4 11 -5 28 -24 48 -17 16 -28 34 -25 38 3 5 -1 9 -9 10 -8
1 -22 3 -30 4 -8 1 -12 5 -9 10 4 5 13 7 21 4 8 -3 11 -1 8 4 -8 12 -37 9 -48
-5 -5 -6 -7 -4 -4 5 7 23 -12 52 -30 46 -13 -5 -13 -4 -4 8 9 11 8 15 -4 20
-11 4 -14 2 -10 -7 4 -6 0 -4 -8 6 -8 10 -24 19 -35 20 -11 0 -19 5 -16 9 3 4
10 6 17 4 7 -1 9 -1 4 1 -4 3 -5 8 -3 12 3 4 -1 8 -9 8 -8 0 -15 -5 -15 -10 0
-6 -3 -7 -6 -4 -4 4 -1 13 6 22 15 18 7 19 -22 4 -15 -8 -19 -8 -14 0 4 6 2
11 -3 11 -6 0 -10 3 -10 8 4 25 -2 34 -15 23 -12 -10 -13 -8 -9 9 4 13 0 26
-8 31 -24 15 -34 10 -13 -7 10 -8 13 -13 7 -9 -7 3 -13 1 -13 -5 0 -7 -7 -5
-16 4 -8 9 -20 14 -25 11 -9 -6 -12 3 -12 36 0 13 -8 16 -32 15 -27 -1 -31 2
-29 21 2 16 -2 21 -17 18 -14 -3 -19 1 -17 12 2 9 -3 18 -9 20 -7 3 -13 0 -13
-7 0 -6 6 -8 13 -4 6 4 8 3 4 -1 -13 -15 -39 -15 -33 0 3 8 0 17 -6 21 -7 4
-8 3 -4 -4 5 -8 -1 -12 -15 -12 -18 0 -19 2 -9 15 7 9 10 18 6 22 -3 3 -6 1
-6 -5 0 -7 -7 -12 -15 -12 -8 0 -15 5 -15 11 0 5 -6 7 -12 3 -8 -5 -7 0 2 11
9 11 10 16 3 11 -7 -4 -13 -2 -13 3 0 6 -5 11 -11 11 -6 0 -9 -6 -6 -13 3 -8
-1 -14 -9 -14 -10 0 -12 7 -8 21 6 20 5 20 -8 2 -13 -16 -16 -17 -30 -3 -9 9
-18 13 -21 10 -4 -3 -4 5 -2 17 2 12 2 20 -1 17 -7 -7 -33 16 -28 24 4 7 -34
4 -75 -5 -13 -3 -21 -3 -17 1 3 3 1 12 -5 19 -7 8 -6 14 2 20 8 5 9 3 4 -6 -5
-9 -4 -11 4 -6 6 4 9 12 5 17 -3 5 -9 7 -14 4 -5 -3 -14 3 -20 12 -10 16 -10
16 -5 -3 4 -14 1 -21 -9 -21 -9 0 -13 4 -10 9 4 5 0 9 -7 7 -28 -3 -38 1 -33
15 4 9 -2 13 -20 11 -17 -2 -23 1 -19 10 2 8 12 11 21 8 14 -4 15 -3 2 5 -8 6
-19 7 -25 3 -12 -10 -46 -10 -40 0 3 4 -2 10 -11 13 -10 4 -13 2 -8 -6 4 -7 3
-8 -5 -4 -6 4 -20 2 -29 -6 -15 -12 -16 -11 -4 4 11 14 10 18 -3 25 -9 5 -17
19 -18 30 0 12 -4 20 -8 17 -4 -2 -5 -14 -3 -27 l5 -22 -10 23 c-6 12 -19 22
-31 22 -14 0 -19 4 -14 13 5 7 0 6 -11 -3 -13 -11 -19 -12 -22 -3 -2 7 -12 9
-21 6 -16 -5 -16 -5 0 8 15 13 16 15 0 29 -14 13 -15 13 -10 -1 4 -9 1 -16 -7
-16 -8 0 -12 9 -9 21 3 18 1 19 -9 6 -16 -21 -77 -19 -111 3 -15 10 -25 21
-21 25 3 4 10 0 15 -8 6 -9 10 -10 10 -3 0 22 -23 26 -38 7 -13 -16 -14 -17
-9 -1 4 10 1 17 -6 17 -8 0 -6 4 3 10 9 6 10 10 3 10 -6 0 -14 -4 -17 -8 -6
-9 -54 -8 -79 3 -10 4 -24 2 -34 -6 -9 -8 -14 -9 -10 -3 4 7 -2 12 -18 12 -16
0 -22 -5 -18 -12 4 -6 -1 -5 -10 3 -9 7 -14 17 -11 22 3 5 -1 9 -8 9 -9 0 -9
3 2 10 8 5 10 10 5 10 -6 0 -16 -5 -23 -12 -9 -9 -12 -9 -12 1 0 7 -4 10 -9 6
-5 -3 -12 -1 -16 4 -3 5 -14 8 -25 6 -13 -2 -18 0 -14 7 4 6 1 9 -7 6 -8 -3
-13 -11 -12 -17 2 -6 -2 -11 -7 -11 -14 0 -13 23 2 38 9 9 9 12 0 12 -7 0 -12
-4 -12 -8 0 -13 -34 -11 -42 2 -5 7 -13 5 -25 -6 -11 -11 -13 -18 -5 -18 7 0
12 5 12 11 0 8 4 8 15 -1 8 -6 20 -8 26 -4 7 4 9 3 6 -3 -4 -6 -21 -10 -39 -9
-26 2 -32 6 -30 21 3 17 2 17 -14 4 -15 -12 -16 -12 -9 0 6 11 4 13 -8 8 -9
-3 -19 -1 -23 5 -4 7 -3 8 4 4 7 -4 12 -1 12 8 0 10 -6 13 -17 9 -10 -4 -14
-2 -10 4 3 5 0 10 -8 10 -8 0 -12 -4 -9 -9 3 -4 0 -8 -5 -8 -6 0 -11 5 -11 10
0 6 -5 10 -11 10 -5 0 -8 -3 -6 -7 3 -5 -6 -9 -19 -9 -14 -1 -21 2 -17 9 4 6
1 7 -8 2 -16 -10 -79 -14 -79 -4 0 14 14 18 29 6 14 -11 14 -10 2 6 -12 16
-16 16 -31 2 -20 -18 -34 -20 -24 -2 5 9 4 9 -6 0 -7 -6 -18 -9 -25 -7 -7 3
-16 1 -20 -5 -3 -6 -12 -11 -18 -11 -9 0 -9 2 0 8 9 5 -2 15 -33 30 -25 12
-43 18 -39 12 6 -10 -7 -14 -34 -11 -7 2 -10 -3 -6 -9 3 -6 3 -10 -2 -9 -24 4
-43 -2 -37 -13 4 -7 3 -8 -4 -4 -15 9 -4 36 13 30 13 -5 28 10 31 34 2 10 -1
10 -12 1 -7 -6 -11 -15 -8 -20 3 -5 0 -9 -5 -9 -6 0 -11 5 -11 11 0 6 -9 1
-21 -12 -11 -13 -18 -19 -16 -14 3 6 1 19 -3 30 -6 17 -16 21 -51 19 -24 -1
-53 3 -64 8 -19 9 -19 9 -1 -6 18 -14 18 -15 -3 -13 -11 1 -21 6 -22 12 0 5
-4 1 -9 -10 -8 -19 -9 -19 -9 -1 -1 19 -1 19 -22 0 -14 -13 -20 -14 -17 -4 2
8 -1 14 -7 15 -5 0 -15 4 -22 8 -6 4 -14 3 -18 -3 -4 -6 -11 -8 -16 -5 -5 4
-9 -2 -10 -12 0 -14 -2 -13 -10 5 -5 13 -13 20 -19 17 -15 -9 -12 -17 3 -9 9
5 9 4 0 -6 -9 -10 -15 -10 -28 4 -22 22 -28 20 -15 -4 13 -24 7 -26 -14 -4
-12 12 -16 12 -16 2 0 -10 -3 -9 -10 2 -8 12 -10 12 -10 -5 0 -16 -2 -17 -9
-5 -6 8 -7 19 -4 25 2 5 -5 -1 -16 -15 -12 -14 -19 -18 -15 -8 4 12 1 16 -13
14 -10 -2 -26 1 -35 6 -14 7 -16 5 -11 -8 5 -13 3 -15 -8 -8 -22 13 -43 14
-51 1 -6 -9 -8 -9 -8 -1 0 7 -7 14 -15 18 -13 4 -14 2 -5 -14 13 -25 9 -25
-20 0 -13 11 -28 20 -33 20 -6 0 -3 -6 6 -12 16 -12 15 -13 -9 -14 -18 -2 -24
2 -20 12 8 20 -1 17 -13 -3z m449 -8 c11 -13 10 -14 -4 -9 -9 3 -16 10 -16 15
0 13 6 11 20 -6z m207 -17 c-3 -8 -6 -5 -6 6 -1 11 2 17 5 13 3 -3 4 -12 1
-19z m-50 6 c-3 -3 -12 -4 -19 -1 -8 3 -5 6 6 6 11 1 17 -2 13 -5z m-1017
-104 c0 -5 -5 -10 -11 -10 -5 0 -7 5 -4 10 3 6 8 10 11 10 2 0 4 -4 4 -10z
m-513 -125 c0 -8 -4 -12 -9 -9 -5 3 -6 10 -3 15 9 13 12 11 12 -6z m-114 -60
c-3 -9 -8 -14 -10 -11 -3 3 -2 9 2 15 9 16 15 13 8 -4z m2872 5 c-3 -5 -12
-10 -18 -10 -7 0 -6 4 3 10 19 12 23 12 15 0z m-2952 -60 c10 -12 9 -12 -5 -2
-13 10 -17 10 -20 0 -3 -8 -6 -7 -10 4 -8 20 17 18 35 -2z m-142 -33 c-6 -8
-7 -18 -3 -22 4 -5 1 -5 -6 -1 -10 6 -10 11 -1 22 6 8 14 14 16 14 3 0 0 -6
-6 -13z m3489 -78 c0 -4 -4 -11 -10 -14 -5 -3 -10 -1 -10 5 0 6 -5 8 -12 4 -6
-4 -8 -3 -5 3 7 11 37 13 37 2z m-3785 -89 c3 -5 -1 -10 -10 -10 -9 0 -13 5
-10 10 3 6 8 10 10 10 2 0 7 -4 10 -10z m4075 -74 c0 -3 -4 -8 -10 -11 -5 -3
-10 -1 -10 4 0 6 5 11 10 11 6 0 10 -2 10 -4z m51 -41 c0 -5 -5 -11 -13 -13
-10 -3 -10 -1 1 6 11 8 10 11 -5 15 -16 5 -16 6 -1 4 10 -1 18 -6 18 -12z
m-4424 -68 c0 -8 -6 -14 -14 -14 -9 0 -10 4 -2 14 6 7 12 13 14 13 1 0 2 -6 2
-13z m-169 -171 c-7 -8 -17 -12 -22 -9 -4 3 -2 9 5 14 22 13 31 11 17 -5z
m-40 -51 c-3 -3 -9 2 -12 12 -6 14 -5 15 5 6 7 -7 10 -15 7 -18z m5007 -35 c3
-5 1 -10 -4 -10 -6 0 -11 5 -11 10 0 6 2 10 4 10 3 0 8 -4 11 -10z m-5170 -80
c-3 -5 -14 -10 -23 -9 -14 0 -13 2 3 9 27 11 27 11 20 0z m-93 -80 c-9 -16
-23 -32 -30 -35 -7 -2 -1 11 14 30 32 43 39 45 16 5z m5662 -229 c-4 -3 -9 -1
-11 6 -2 7 -10 11 -16 9 -7 -1 -9 -1 -4 1 4 3 4 10 0 16 -3 7 3 3 15 -7 12
-11 19 -22 16 -25z m-6094 -331 c0 -5 -4 -10 -10 -10 -5 0 -10 5 -10 10 0 6 5
10 10 10 6 0 10 -4 10 -10z m6449 -158 c15 -22 17 -29 6 -29 -8 0 -12 4 -9 8
3 5 -4 17 -16 29 -11 11 -16 20 -11 20 5 0 19 -13 30 -28z m-6805 -508 c3 -8
2 -12 -4 -9 -6 3 -10 10 -10 16 0 14 7 11 14 -7z m7051 7 c-3 -5 -1 -12 5 -16
6 -4 8 -11 4 -16 -9 -14 -23 -1 -19 19 5 23 4 22 11 22 3 0 3 -4 -1 -9z m62
-223 c-3 -8 -6 -5 -6 6 -1 11 2 17 5 13 3 -3 4 -12 1 -19z m70 -128 c-1 -10
-4 -17 -8 -14 -4 2 -7 13 -6 24 1 10 4 17 8 14 4 -2 7 -13 6 -24z m-3 -60 c-6
-5 -24 21 -24 34 0 6 6 1 14 -10 8 -10 12 -21 10 -24z m-7357 -222 c-3 -8 -6
-5 -6 6 -1 11 2 17 5 13 3 -3 4 -12 1 -19z m-17 -8 c0 -5 -5 -10 -11 -10 -5 0
-7 5 -4 10 3 6 8 10 11 10 2 0 4 -4 4 -10z m-40 -280 c0 -5 -5 -10 -11 -10 -5
0 -7 5 -4 10 3 6 8 10 11 10 2 0 4 -4 4 -10z m7529 -87 c-12 -15 -12 -16 4
-10 26 10 41 -1 26 -19 -9 -11 -9 -14 1 -14 10 0 10 -3 0 -15 -7 -8 -18 -15
-24 -15 -6 0 -4 5 4 10 13 9 13 11 0 20 -13 9 -13 10 0 10 9 1 6 5 -7 10 -22
9 -23 40 -1 40 6 0 4 -8 -3 -17z m35 -751 c3 -5 -1 -9 -9 -9 -8 0 -12 4 -9 9
3 4 7 8 9 8 2 0 6 -4 9 -8z m-3 -60 c-8 -15 -8 -23 -1 -27 8 -5 7 -11 -1 -21
-18 -22 -27 -17 -25 15 0 16 4 27 7 25 4 -2 9 3 12 11 4 9 1 12 -9 8 -7 -3
-14 0 -14 7 0 6 5 8 10 5 6 -3 10 -1 10 6 0 10 3 10 11 2 8 -8 8 -17 0 -31z
m-7582 -21 c2 -1 -4 -10 -14 -21 -19 -20 -9 -28 13 -10 9 7 9 7 2 -2 -14 -17
-12 -31 3 -22 10 6 10 4 0 -7 -15 -15 -18 -33 -5 -25 5 3 9 -1 9 -9 0 -8 -7
-17 -14 -19 -8 -3 -12 -2 -8 3 7 12 -5 42 -14 37 -4 -3 -7 15 -7 39 0 33 4 42
16 40 8 -2 17 -4 19 -4z m7556 -81 c-3 -5 -11 -10 -16 -10 -6 0 -7 5 -4 10 3
6 11 10 16 10 6 0 7 -4 4 -10z m-10 -80 c3 -5 1 -10 -4 -10 -6 0 -11 5 -11 10
0 6 2 10 4 10 3 0 8 -4 11 -10z m-7470 -327 c-1 -10 3 -25 9 -33 9 -13 9 -13
-6 -2 -13 10 -16 26 -9 50 4 11 9 -2 6 -15z m55 -193 c0 -5 -5 -10 -11 -10 -5
0 -7 5 -4 10 3 6 8 10 11 10 2 0 4 -4 4 -10z m60 -194 c0 -11 -19 -15 -25 -6
-3 5 1 10 9 10 9 0 16 -2 16 -4z m220 -526 c0 -5 -2 -10 -4 -10 -3 0 -8 5 -11
10 -3 6 -1 10 4 10 6 0 11 -4 11 -10z m81 -117 c13 -16 12 -17 -3 -4 -10 7
-18 15 -18 17 0 8 8 3 21 -13z m6546 -75 c-3 -8 -6 -5 -6 6 -1 11 2 17 5 13 3
-3 4 -12 1 -19z m-147 -208 c0 -5 -2 -10 -4 -10 -3 0 -8 5 -11 10 -3 6 -1 10
4 10 6 0 11 -4 11 -10z m-30 -36 c0 -8 -19 -13 -24 -6 -3 5 1 9 9 9 8 0 15 -2
15 -3z m-6143 -69 c0 -8 -4 -12 -9 -9 -5 3 -6 10 -3 15 9 13 12 11 12 -6z
m173 -159 c0 -2 -7 -7 -16 -10 -8 -3 -12 -2 -9 4 6 10 25 14 25 6z m80 -90 c0
-11 -19 -15 -25 -6 -3 5 1 10 9 10 9 0 16 -2 16 -4z m5292 -338 c-7 -7 -12 -8
-12 -2 0 14 12 26 19 19 2 -3 -1 -11 -7 -17z m-4090 -563 c2 3 5 -1 5 -8 0 -8
-6 -14 -14 -14 -7 0 -11 3 -8 5 3 3 -1 12 -8 21 -10 14 -10 14 4 4 9 -7 18
-11 21 -8z m179 -82 c13 -16 12 -17 -3 -4 -17 13 -22 21 -14 21 2 0 10 -8 17
-17z m379 -119 c0 -8 -19 -13 -24 -6 -3 5 1 9 9 9 8 0 15 -2 15 -3z m240 -59
c0 -8 -4 -15 -10 -15 -5 0 -7 7 -4 15 4 8 8 15 10 15 2 0 4 -7 4 -15z m617
-67 c-3 -8 -6 -5 -6 6 -1 11 2 17 5 13 3 -3 4 -12 1 -19z m380 7 c0 -8 -4 -12
-9 -9 -5 3 -6 10 -3 15 9 13 12 11 12 -6z m-33 -7 c-3 -4 -9 -8 -15 -8 -5 0
-9 4 -9 8 0 5 7 9 15 9 8 0 12 -4 9 -9z"/>
<path d="M8883 4565 c0 -8 4 -12 9 -9 5 3 6 10 3 15 -9 13 -12 11 -12 -6z"/>
<path d="M5520 8776 c0 -3 9 -10 19 -16 15 -7 22 -7 27 2 4 7 4 10 -1 6 -4 -4
-16 -3 -26 3 -11 5 -19 7 -19 5z"/>
<path d="M4170 8689 c0 -5 5 -7 10 -4 6 3 10 8 10 11 0 2 -4 4 -10 4 -5 0 -10
-5 -10 -11z"/>
<path d="M6030 8680 c0 -4 7 -7 15 -6 23 3 26 12 5 13 -11 1 -20 -2 -20 -7z"/>
<path d="M3971 8634 c0 -11 3 -14 6 -6 3 7 2 16 -1 19 -3 4 -6 -2 -5 -13z"/>
<path d="M6096 8641 c-3 -4 4 -7 14 -6 27 2 33 10 10 12 -11 1 -22 -2 -24 -6z"/>
<path d="M6206 8632 c-3 -5 1 -9 9 -9 8 0 12 4 9 9 -3 4 -7 8 -9 8 -2 0 -6 -4
-9 -8z"/>
<path d="M6344 8578 c1 -7 12 -14 24 -14 18 -1 20 2 11 12 -13 16 -23 19 -14
4 3 -5 2 -10 -4 -10 -5 0 -12 5 -14 10 -3 6 -4 5 -3 -2z"/>
<path d="M6409 8573 c-13 -16 -12 -17 4 -4 9 7 17 15 17 17 0 8 -8 3 -21 -13z"/>
<path d="M3588 8496 c-10 -7 -15 -16 -12 -19 4 -3 13 1 21 9 20 19 13 26 -9
10z"/>
<path d="M6600 8493 c0 -6 8 -17 18 -24 16 -13 16 -13 2 6 -8 11 -16 22 -17
24 -2 2 -3 0 -3 -6z"/>
<path d="M6686 8453 c-6 -14 -5 -15 5 -6 7 7 10 15 7 18 -3 3 -9 -2 -12 -12z"/>
<path d="M6860 8361 c0 -7 -5 -9 -12 -5 -7 5 -8 3 -3 -5 5 -9 10 -10 18 -2 6
6 8 14 4 18 -4 3 -7 1 -7 -6z"/>
<path d="M3185 8288 l-20 -21 23 12 c12 6 22 16 22 21 0 13 -2 12 -25 -12z"/>
<path d="M6970 8301 c0 -5 7 -15 17 -22 15 -13 15 -12 4 9 -12 23 -21 28 -21
13z"/>
<path d="M2673 7935 c0 -8 4 -12 9 -9 4 3 8 9 8 15 0 5 -4 9 -8 9 -5 0 -9 -7
-9 -15z"/>
<path d="M7650 7800 c0 -5 5 -10 11 -10 5 0 7 5 4 10 -3 6 -8 10 -11 10 -2 0
-4 -4 -4 -10z"/>
<path d="M7750 7687 c0 -2 13 -15 28 -30 28 -26 28 -26 29 -4 1 13 -1 17 -5
10 -6 -9 -12 -7 -22 7 -12 17 -30 27 -30 17z"/>
<path d="M2090 7399 c0 -5 5 -7 10 -4 6 3 10 8 10 11 0 2 -4 4 -10 4 -5 0 -10
-5 -10 -11z"/>
<path d="M1936 7173 c-6 -14 -5 -15 5 -6 7 7 10 15 7 18 -3 3 -9 -2 -12 -12z"/>
<path d="M1870 7059 c0 -5 5 -7 10 -4 6 3 10 8 10 11 0 2 -4 4 -10 4 -5 0 -10
-5 -10 -11z"/>
<path d="M1740 6859 c0 -5 5 -7 10 -4 6 3 10 8 10 11 0 2 -4 4 -10 4 -5 0 -10
-5 -10 -11z"/>
<path d="M1597 6553 c3 -8 0 -13 -8 -11 -7 2 -13 -4 -14 -12 0 -8 -7 -14 -14
-12 -7 1 -9 -2 -6 -9 5 -7 17 -1 36 17 32 31 36 41 15 41 -8 0 -12 -6 -9 -14z"/>
<path d="M8586 6501 c-3 -5 0 -14 8 -20 10 -9 17 -7 27 6 13 16 12 17 -3 5
-10 -8 -19 -9 -22 -3 -3 5 0 12 6 14 9 4 10 6 1 6 -6 1 -14 -3 -17 -8z"/>
<path d="M1393 6005 c0 -8 4 -15 9 -15 4 0 8 4 8 9 0 6 -4 12 -8 15 -5 3 -9
-1 -9 -9z"/>
<path d="M1370 5900 c0 -5 5 -10 11 -10 5 0 7 5 4 10 -3 6 -8 10 -11 10 -2 0
-4 -4 -4 -10z"/>
<path d="M8805 5900 c3 -5 8 -10 11 -10 2 0 4 5 4 10 0 6 -5 10 -11 10 -5 0
-7 -4 -4 -10z"/>
<path d="M1313 5663 c4 -3 1 -13 -6 -22 -11 -14 -10 -14 5 -2 16 12 16 31 1
31 -4 0 -3 -3 0 -7z"/>
<path d="M8863 5625 c0 -8 4 -12 9 -9 5 3 6 10 3 15 -9 13 -12 11 -12 -6z"/>
<path d="M8867 5589 c7 -7 15 -10 18 -7 3 3 -2 9 -12 12 -14 6 -15 5 -6 -5z"/>
<path d="M8860 5560 c0 -5 5 -10 11 -10 5 0 7 5 4 10 -3 6 -8 10 -11 10 -2 0
-4 -4 -4 -10z"/>
<path d="M8895 5529 c-4 -6 -5 -12 -2 -15 2 -3 7 2 10 11 7 17 1 20 -8 4z"/>
<path d="M1275 5491 c-3 -5 -2 -12 3 -15 5 -3 9 1 9 9 0 17 -3 19 -12 6z"/>
<path d="M1300 5441 c0 -6 4 -12 8 -15 5 -3 9 1 9 9 0 8 -4 15 -9 15 -4 0 -8
-4 -8 -9z"/>
<path d="M1270 4436 c0 -2 8 -10 18 -17 15 -13 16 -12 3 4 -13 16 -21 21 -21
13z"/>
<path d="M8810 4181 c0 -5 5 -13 10 -16 6 -3 10 -2 10 4 0 5 -4 13 -10 16 -5
3 -10 2 -10 -4z"/>
<path d="M1373 4015 c0 -8 4 -12 9 -9 5 3 6 10 3 15 -9 13 -12 11 -12 -6z"/>
<path d="M1388 3943 c7 -3 16 -2 19 1 4 3 -2 6 -13 5 -11 0 -14 -3 -6 -6z"/>
<path d="M1437 3833 c-10 -9 -9 -23 1 -23 5 0 9 7 9 15 0 17 -1 18 -10 8z"/>
<path d="M1430 3746 c0 -2 7 -7 16 -10 8 -3 12 -2 9 4 -6 10 -25 14 -25 6z"/>
<path d="M8696 3707 c3 -10 9 -15 12 -12 3 3 0 11 -7 18 -10 9 -11 8 -5 -6z"/>
<path d="M1530 3581 c0 -7 -5 -9 -12 -5 -7 4 -10 4 -6 0 3 -4 10 -8 15 -8 4
-1 14 -8 21 -17 11 -13 11 -12 1 9 -15 32 -19 36 -19 21z"/>
<path d="M8642 3571 c-11 -7 -10 -9 3 -14 9 -4 14 -3 10 2 -3 5 1 12 7 14 7 3
9 6 3 6 -5 0 -16 -3 -23 -8z"/>
<path d="M8574 3448 c-4 -6 -3 -8 4 -4 6 3 13 -2 15 -11 4 -14 5 -13 6 5 1 23
-13 30 -25 10z"/>
<path d="M8570 3359 c0 -5 5 -7 10 -4 6 3 10 8 10 11 0 2 -4 4 -10 4 -5 0 -10
-5 -10 -11z"/>
<path d="M8516 3321 c-3 -5 1 -11 9 -14 9 -4 12 -1 8 9 -6 16 -10 17 -17 5z"/>
<path d="M8509 3283 c0 -5 -2 -15 -4 -24 -1 -9 4 -16 11 -16 9 0 11 4 5 10 -5
5 -7 16 -4 23 3 8 2 14 -1 14 -3 0 -6 -3 -7 -7z"/>
<path d="M8474 3213 c1 -7 6 -16 10 -20 4 -4 6 -1 4 7 -1 8 3 14 10 13 6 -2
12 1 12 6 0 6 -8 9 -19 8 -10 0 -18 -7 -17 -14z"/>
<path d="M1734 3119 c-4 -7 -3 -9 4 -5 5 3 13 0 15 -6 4 -9 6 -10 6 -1 1 17
-16 25 -25 12z"/>
<path d="M8327 2956 c-4 -10 -1 -13 8 -9 8 3 12 9 9 14 -7 12 -11 11 -17 -5z"/>
<path d="M1846 2932 c-3 -6 -1 -14 5 -17 15 -10 25 3 12 16 -7 7 -13 7 -17 1z"/>
<path d="M8285 2900 c-3 -5 -2 -10 4 -10 5 0 13 5 16 10 3 6 2 10 -4 10 -5 0
-13 -4 -16 -10z"/>
<path d="M1862 2886 c7 -8 15 -12 17 -11 5 6 -10 25 -20 25 -5 0 -4 -6 3 -14z"/>
<path d="M1904 2823 c4 -4 16 -8 28 -10 28 -4 18 6 -12 12 -12 2 -20 1 -16 -2z"/>
<path d="M2064 2618 c-4 -7 -4 -10 1 -6 12 11 35 -11 28 -28 -3 -8 -3 -14 0
-14 15 0 13 30 -3 45 -14 13 -20 14 -26 3z"/>
<path d="M2205 2480 c4 -6 1 -19 -7 -28 -12 -15 -11 -16 4 -4 9 8 23 10 30 6
7 -4 4 2 -6 14 -20 23 -32 29 -21 12z"/>
<path d="M7966 2482 c-2 -4 -1 -14 4 -22 7 -11 9 -9 7 8 -1 24 -3 26 -11 14z"/>
<path d="M2460 2200 c0 -5 7 -7 15 -4 8 4 15 8 15 10 0 2 -7 4 -15 4 -8 0 -15
-4 -15 -10z"/>
<path d="M2687 1979 c7 -7 15 -10 18 -7 3 3 -2 9 -12 12 -14 6 -15 5 -6 -5z"/>
<path d="M7140 1758 c-10 -21 -10 -21 3 -6 8 10 18 14 22 10 5 -4 5 -1 1 6
-10 17 -14 15 -26 -10z"/>
<path d="M3196 1662 c-3 -5 1 -9 9 -9 8 0 12 4 9 9 -3 4 -7 8 -9 8 -2 0 -6 -4
-9 -8z"/>
<path d="M6945 1629 c-11 -16 -1 -19 13 -3 7 8 8 14 3 14 -5 0 -13 -5 -16 -11z"/>
<path d="M3351 1573 c7 -12 15 -20 18 -17 3 2 -3 12 -13 22 -17 16 -18 16 -5
-5z"/>
<path d="M6810 1558 c0 -4 4 -8 9 -8 6 0 12 4 15 8 3 5 -1 9 -9 9 -8 0 -15 -4
-15 -9z"/>
<path d="M6713 1523 c-9 -13 -13 -26 -9 -30 3 -3 6 -1 6 6 0 7 4 9 10 6 6 -3
7 1 4 9 -4 10 -1 16 9 16 9 0 18 4 21 8 13 21 -27 6 -41 -15z"/>
<path d="M3515 1490 c-3 -5 -1 -10 4 -10 6 0 11 5 11 10 0 6 -2 10 -4 10 -3 0
-8 -4 -11 -10z"/>
<path d="M3546 1485 c4 -8 11 -15 16 -15 6 0 5 6 -2 15 -7 8 -14 15 -16 15 -2
0 -1 -7 2 -15z"/>
<path d="M3710 1428 c0 -4 4 -8 9 -8 6 0 12 4 15 8 3 5 -1 9 -9 9 -8 0 -15 -4
-15 -9z"/>
<path d="M6478 1427 c-10 -6 -8 -7 4 -4 9 3 18 1 21 -6 2 -7 6 -5 9 4 7 18
-14 21 -34 6z"/>
<path d="M3845 1371 c-3 -5 0 -13 6 -17 8 -4 9 -3 5 4 -8 13 6 17 18 5 10 -11
36 -12 36 -2 0 5 -3 9 -7 10 -5 0 -18 2 -30 5 -12 2 -25 0 -28 -5z"/>
<path d="M5381 1191 c-8 -5 -9 -11 -3 -15 5 -3 12 1 16 9 6 17 6 18 -13 6z"/>
<path d="M5095 1160 c3 -5 8 -10 11 -10 2 0 4 5 4 10 0 6 -5 10 -11 10 -5 0
-7 -4 -4 -10z"/>
</g>
</svg>
